<?xml version="1.0" standalone="no"?>
<!DOCTYPE svg PUBLIC "-//W3C//DTD SVG 20010904//EN"
 "http://www.w3.org/TR/2001/REC-SVG-20010904/DTD/svg10.dtd">
<svg version="1.0" xmlns="http://www.w3.org/2000/svg"
 width="260.000000pt" height="260.000000pt" viewBox="0 0 260.000000 260.000000"
 preserveAspectRatio="xMidYMid meet">
<metadata>
Created by potrace 1.11, written by Peter Selinger 2001-2013
</metadata>
<g transform="translate(0.000000,260.000000) scale(0.100000,-0.100000)"
fill="#000000" stroke="none">
<path d="M210 1841 c0 -63 168 -788 265 -1145 59 -218 158 -551 184 -618 l11
-28 189 0 189 0 42 117 c35 100 135 419 257 822 16 52 33 96 38 98 6 1 54
-142 109 -320 54 -177 128 -410 165 -517 l67 -195 193 0 194 0 14 40 c33 95
138 452 192 652 95 354 251 1032 251 1090 l0 23 -209 0 -210 0 -10 -52 c-6
-29 -26 -143 -46 -253 -79 -437 -176 -899 -195 -918 -12 -13 -120 322 -250
772 -38 135 -76 248 -83 253 -6 4 -82 8 -168 8 -121 0 -159 -3 -168 -14 -6 -7
-38 -112 -72 -232 -111 -407 -233 -794 -249 -794 -11 0 -20 31 -72 255 -37
161 -136 652 -176 870 l-17 100 -218 3 c-210 2 -217 2 -217 -17z"/>
</g>
</svg>
